<?xml version="1.0" encoding="iso-8859-1"?>
<!-- Generator: Adobe Illustrator 19.0.0, SVG Export Plug-In . SVG Version: 6.00 Build 0)  -->
<svg version="1.1" id="Capa_1" xmlns="http://www.w3.org/2000/svg" xmlns:xlink="http://www.w3.org/1999/xlink" x="0px" y="0px"
	 viewBox="0 0 512.002 512.002" style="enable-background:new 0 0 512.002 512.002;" xml:space="preserve">
<circle style="fill:#78D2FA;" cx="256" cy="240" r="200"/>
<g>
	<path style="fill:#A5DC69;" d="M256,40.001c-85.903,0-159.147,54.162-187.47,130.197h89.452c10.668,0,20.559-5.58,26.077-14.71
		l18.086-29.929c5.518-9.13,15.409-14.71,26.077-14.71l0,0c12.509,0,23.748-7.646,28.341-19.282l17.117-43.364
		c0,0,3.252-2.773,7.42-6.638C272.878,40.536,264.502,40.001,256,40.001z"/>
	<path style="fill:#A5DC69;" d="M456,240.001c0-62.707-28.867-118.664-74.027-155.333h-14.127c-3.711,0-7.238,1.617-9.66,4.428
		l-11.953,13.875c-4.097,4.756-4.123,11.787-0.06,16.573l0,0c5.015,5.908,3.644,14.886-2.906,19.027l-25.654,16.222
		c-5.773,3.65-9.272,10.004-9.272,16.834v10.087c0,4.515-2.388,8.694-6.278,10.986l-24.5,14.434
		C264.201,215.004,256,229.354,256,244.86c0,16.102,8.838,30.905,23.012,38.544l9.578,5.162c1.069,0.576,2.215,0.997,3.404,1.249
		l10.507,2.229c10.278,2.18,17.629,11.254,17.629,21.761v14.534c0,4.772-1.535,9.417-4.377,13.25l-23.276,31.387L386,352.778
		l30.214,6.956C441.201,326.353,456,284.905,456,240.001z"/>
</g>
<path style="fill:#FFE6C3;" d="M502,379.654l-105.613-25.086c-10.896-2.588-22.272-2.367-33.059,0.642l-118.866,33.16
	c-11.128,3.104-17.737,14.53-14.879,25.724l0,0c2.402,9.409,10.878,15.992,20.589,15.992h54.161h28.28H215.788
	c-19.018,0-37.166-7.969-50.034-21.972l-68.136-74.139c-6.395-6.959-16.819-8.425-24.886-3.5l0,0
	c-9.671,5.904-12.42,18.708-6.025,28.062l64.185,93.888C147.822,477.19,175.887,492,205.886,492H502V379.654z"/>
<path style="fill:#A5DC69;" d="M104.517,201.24c1.312,0,22.861,4.497,38.086,7.71c9.387,1.981,17.236,8.376,21.072,17.17
	l7.838,17.971l39.511,36.109c6.235,5.698,5.942,15.607-0.617,20.928l-39.38,31.941c-6.122,4.966-10.694,11.582-13.174,19.065
	l-9.146,27.596l-38.284-41.658l2.885-32.648c0.479-5.416-0.54-10.859-2.945-15.736l-15.449-31.327
	c-3.436-6.967-4.002-15.004-1.578-22.384l10.914-33.226"/>
<g>
	<path style="fill:#AAE6FF;" d="M501.988,246.001c0-20.112-16.419-36.474-36.601-36.474c-1.26,0-2.518,0.07-3.769,0.195
		c-6.347-16.527-22.334-27.691-40.458-27.691c-18.125,0-34.111,11.164-40.458,27.691c-1.252-0.125-2.508-0.195-3.77-0.195
		c-20.18,0-36.598,16.362-36.598,36.474H501.988z"/>
	<path style="fill:#AAE6FF;" d="M171.654,83.971c0-20.112-16.419-36.474-36.601-36.474c-1.26,0-2.518,0.07-3.769,0.195
		c-6.347-16.527-22.334-27.691-40.458-27.691c-18.125,0-34.111,11.164-40.458,27.691c-1.252-0.125-2.508-0.195-3.77-0.195
		C26.418,47.497,10,63.859,10,83.971H171.654z"/>
</g>
<path d="M356,482.001c-2.63,0-5.21,1.07-7.07,2.93c-1.86,1.86-2.93,4.44-2.93,7.07s1.07,5.21,2.93,7.07
	c1.86,1.86,4.44,2.93,7.07,2.93s5.21-1.07,7.07-2.93s2.93-4.44,2.93-7.07s-1.07-5.21-2.93-7.07
	C361.21,483.071,358.63,482.001,356,482.001z"/>
<path d="M502,482.001H401.68c-5.523,0-10,4.477-10,10s4.477,10,10,10H502c5.523,0,10-4.477,10-10S507.523,482.001,502,482.001z"/>
<path d="M414.065,369.046c0.073,0.018,0.145,0.035,0.218,0.052l85.405,20.286c5.377,1.277,10.764-2.045,12.041-7.418
	c1.276-5.374-2.045-10.764-7.418-12.041l-71.275-16.93c18.674-29.173,29.748-62.314,32.359-96.994h36.592c5.523,0,10-4.477,10-10
	c0-24.783-19.554-45.097-44.083-46.407c-2.278-4.117-5.086-7.875-8.313-11.204c-0.023-0.105-0.037-0.21-0.063-0.314
	C435.852,95.004,352.158,30.001,256,30.001c-31.259,0-61.28,6.707-89.299,19.902c-7.742-7.158-17.912-11.741-29.13-12.34
	C128.314,20.831,110.336,10,90.826,10S53.338,20.829,44.082,37.564C19.552,38.871,0,59.186,0,83.97c0,5.523,4.477,10,10,10h95.102
	C67.319,132.984,46,185.113,46,240.001c0,29.497,5.984,57.95,17.775,84.655c-4.965,4.225-8.476,10.026-9.857,16.456
	c-1.707,7.949-0.054,16.356,4.534,23.068l64.185,93.888C141.443,485.577,172.564,502,205.887,502h103.105c5.523,0,10-4.477,10-10
	s-4.477-10-10-10H205.886c-26.714,0-51.663-13.166-66.739-35.219l-64.185-93.888c-1.53-2.238-2.059-4.931-1.49-7.582
	s2.157-4.889,4.471-6.301c3.978-2.429,9.157-1.701,12.312,1.731l68.136,74.139c14.721,16.019,35.642,25.206,57.397,25.206h116.825
	c5.523,0,10-4.477,10-10s-4.477-10-10-10h-82.441c-5.145,0-9.626-3.481-10.899-8.466c-1.5-5.879,2.033-11.988,7.877-13.618
	l118.866-33.16c9.132-2.548,18.836-2.737,28.061-0.545L414.065,369.046z M462.612,219.673c0.965-0.096,1.898-0.145,2.774-0.145
	c11.114,0,20.658,6.818,24.63,16.474H352.304c3.971-9.655,13.514-16.474,24.627-16.474c0.877,0,1.811,0.049,2.776,0.146
	c4.485,0.445,8.713-2.159,10.329-6.365c4.888-12.726,17.396-21.276,31.124-21.276c13.729,0,26.236,8.55,31.123,21.275
	C453.898,217.514,458.125,220.123,462.612,219.673z M46.598,57.497c0.885,0,1.794,0.048,2.78,0.146
	c4.481,0.447,8.71-2.16,10.325-6.365c4.888-12.726,17.396-21.276,31.124-21.276c13.729,0,26.236,8.55,31.123,21.275
	c1.615,4.206,5.847,6.809,10.326,6.366c0.971-0.097,1.906-0.146,2.779-0.146c11.114,0,20.658,6.818,24.63,16.474H21.97
	C25.941,64.315,35.484,57.497,46.598,57.497z M102.836,239.098l8.669-26.392c5.36,1.078,14.256,2.911,29.033,6.029
	c6.21,1.31,11.433,5.566,13.97,11.384l7.838,17.97c0.561,1.285,1.385,2.438,2.42,3.384l39.511,36.109
	c1.124,1.027,1.259,2.275,1.24,2.929c-0.02,0.653-0.229,1.891-1.411,2.85l-39.38,31.942c-7.621,6.181-13.28,14.372-16.367,23.685
	c-0.014,0.043-0.028,0.086-0.042,0.13l-5.942,18.783L119.309,342.8l3.941-36.297c0.007-0.066,0.014-0.133,0.02-0.2
	c0.64-7.242-0.722-14.517-3.938-21.038l-15.449-31.328C101.591,249.291,101.219,244.021,102.836,239.098z M241.775,378.738
	c-16.235,4.529-26.051,21.5-21.881,37.83c0.309,1.211,0.709,2.376,1.15,3.519h-5.256c-16.174,0-31.728-6.83-42.672-18.739
	l-15.134-16.468l9.384-29.662c1.887-5.654,5.33-10.627,9.961-14.383l39.379-31.941c5.39-4.371,8.599-10.856,8.804-17.793
	s-2.616-13.601-7.739-18.283l-37.941-34.675l-6.988-16.021c-5.118-11.733-15.65-20.315-28.173-22.957
	c-37.561-7.925-38.704-7.925-40.151-7.925c-5.154,0-9.394,3.899-9.938,8.908l-10.744,32.708c-3.261,9.928-2.512,20.557,2.11,29.927
	l15.449,31.327c1.582,3.207,2.259,6.782,1.96,10.343l-2.1,19.346c-5.418-4.18-12.051-6.295-18.718-6.19
	C71.572,293.163,66,267.074,66,240.001c0-20.586,3.326-40.74,9.64-59.803h82.341c14.082,0,27.353-7.486,34.636-19.538
	c2.856-4.727,1.34-10.874-3.387-13.73c-4.727-2.856-10.874-1.341-13.73,3.387c-3.684,6.095-10.396,9.882-17.519,9.882H83.542
	c11.546-24.945,28.521-47.383,50.131-65.585c0.243-0.205,0.471-0.421,0.689-0.643h37.292c5.523,0,10-4.477,10-10
	c0-6.144-1.205-12.013-3.387-17.386C202.729,55.583,228.845,50.001,256,50.001c2.066,0,4.124,0.044,6.177,0.11l-14.915,37.785
	c-2.247,5.692-6.873,10.046-12.692,11.945c-5.25,1.713-8.118,7.359-6.405,12.609c1.377,4.22,5.294,6.901,9.505,6.901
	c1.028,0,2.074-0.16,3.104-0.496c11.504-3.754,20.649-12.362,25.091-23.616l17.102-43.326c26.212,3.73,50.89,12.823,72.738,26.271
	c-1.885,1.19-3.609,2.657-5.096,4.384l-11.953,13.875c-7.358,8.541-7.403,20.977-0.108,29.571c0.671,0.79,0.708,1.63,0.622,2.195
	s-0.373,1.355-1.249,1.91l-25.653,16.222c-8.721,5.514-13.928,14.967-13.928,25.286v10.086c0,0.97-0.519,1.878-1.354,2.37
	l-24.5,14.434C256.148,208.142,246,225.899,246,244.86c0,19.807,10.832,37.95,28.268,47.347l9.579,5.163
	c1.909,1.029,3.952,1.778,6.072,2.228l10.506,2.229c5.623,1.193,9.705,6.23,9.705,11.979v14.534c0,2.608-0.855,5.198-2.409,7.293
	l-23.104,31.155L241.775,378.738z M360.641,345.578l-44.631,12.451l7.775-10.484c4.091-5.518,6.344-12.338,6.344-19.207v-14.534
	c0-15.136-10.747-28.402-25.554-31.543l-10.508-2.229c-0.256-0.054-0.503-0.145-0.733-0.269l-9.578-5.162
	C272.804,268.698,266,257.302,266,244.86c0-11.91,6.375-23.064,16.637-29.11l24.501-14.434c6.91-4.071,11.202-11.582,11.202-19.602
	v-10.086c0-3.42,1.726-6.554,4.617-8.381l25.653-16.223c5.57-3.522,9.336-9.279,10.331-15.793c0.995-6.515-0.88-13.133-5.146-18.158
	c-0.882-1.039-0.876-2.542,0.014-3.574l11.953-13.875c0.523-0.607,1.282-0.955,2.083-0.955h10.677
	c24.599,20.716,43.986,47.708,55.591,78.984c-4.184-1.057-8.528-1.619-12.953-1.619c-19.509,0-37.487,10.83-46.745,27.563
	c-24.529,1.308-44.081,21.623-44.081,46.407c0,5.523,4.477,10,10,10H445.33c-2.76,33.157-14.078,64.715-33.038,92.066l-13.593-3.229
	C386.186,341.867,373.026,342.122,360.641,345.578z"/>
<path d="M202.15,115.561c-2.64,0-5.22,1.07-7.08,2.93s-2.92,4.44-2.92,7.07s1.06,5.21,2.92,7.07c1.87,1.86,4.44,2.93,7.08,2.93
	c2.63,0,5.2-1.07,7.07-2.93c1.86-1.86,2.92-4.44,2.92-7.07s-1.06-5.21-2.92-7.07C207.35,116.631,204.78,115.561,202.15,115.561z"/>
<g>
</g>
<g>
</g>
<g>
</g>
<g>
</g>
<g>
</g>
<g>
</g>
<g>
</g>
<g>
</g>
<g>
</g>
<g>
</g>
<g>
</g>
<g>
</g>
<g>
</g>
<g>
</g>
<g>
</g>
</svg>
